# xmcd
#
# Track frame offsets: 
#        150
#        7942
#        25089
#        41326
#        55337
#        71382
#        87124
#        105345
#        121316
#        138405
#        160368
#        185892
#        210038
#        234237
#        252881
#        276058
#        299679
#
# Disc length: 4363 seconds
#
# Revision: 8
# Processed by: cddbd v1.5PL3 Copyright (c) Steve Scherf et al.
# Submitted via: ExactAudioCopy v0.90b4
#
DISCID=df110911
DTITLE=VAN HALEN - Best Of Volume I.
DYEAR=1996
DGENRE=Rock
TTITLE0=Eruption
TTITLE1=Ain't Talkin' 'bout Love
TTITLE2=Runnin' With The Devil
TTITLE3=Dance The Night Away
TTITLE4=And The Cradle Will Rock...
TTITLE5=Unchained
TTITLE6=Jump
TTITLE7=Panama
TTITLE8=Why Can't This Be Love
TTITLE9=Dreams
TTITLE10=When It's Love
TTITLE11=Poundcake
TTITLE12=Right Now
TTITLE13=Can't Stop Lovin' You
TTITLE14=Humans Being
TTITLE15=Can't Get This Stuff No More
TTITLE16=Me Wise Magic
EXTD=YEAR: 1996
EXTT0=
EXTT1=
EXTT2=
EXTT3=
EXTT4=
EXTT5=
EXTT6=
EXTT7=
EXTT8=
EXTT9=
EXTT10=
EXTT11=
EXTT12=
EXTT13=
EXTT14=
EXTT15=
EXTT16=
PLAYORDER=
